<svg width="32" height="32" xmlns="http://www.w3.org/2000/svg" stroke="null">
 <g stroke="null">
  <title stroke="null">Layer 1</title>
  <g transform="rotate(0.358922 15.0416 172.724)" stroke="null" id="svg_1">
   <g stroke="null" id="svg_2" transform="translate(0 600) scale(0.1 -0.1)" fill="#000000">
    <path stroke="null" id="svg_3" d="m158.76461,5962.47382c-121.43833,-18.33204 -166.97769,-53.46846 -166.97769,-126.79663c0,-61.10681 59.20119,-122.21362 118.40236,-122.21362c56.16522,0 110.81247,58.05147 160.90578,172.62673l37.94948,87.0772l-56.16522,-1.52767c-30.35957,-1.52767 -72.86299,-4.58301 -94.1147,-9.16602zm9.10788,-73.32817c37.94948,-39.71943 39.46745,-79.43885 3.03597,-125.26896c-25.80565,-32.08107 -115.36641,-24.44272 -133.58216,9.16602c-25.80565,48.88545 -18.21574,105.40924 18.21574,129.85197c47.05736,33.60874 68.30905,30.5534 112.33045,-13.74903z"/>
   </g>
  </g>
 </g>

</svg>